<?xml version="1.0" encoding="UTF-8" standalone="no"?>
<!DOCTYPE svg PUBLIC "-//W3C//DTD SVG 1.1//EN"
 "http://www.w3.org/Graphics/SVG/1.1/DTD/svg11.dtd">
<!-- Generated by graphviz version 2.40.1 (20161225.0304)
 -->
<!-- Title: dependencies Pages: 1 -->
<svg width="614pt" height="284pt"
 viewBox="0.00 0.00 614.00 284.00" xmlns="http://www.w3.org/2000/svg" xmlns:xlink="http://www.w3.org/1999/xlink">
<g id="graph0" class="graph" transform="scale(1 1) rotate(0) translate(4 280)">
<title>dependencies</title>
<polygon fill="#ffffff" stroke="transparent" points="-4,4 -4,-280 610,-280 610,4 -4,4"/>
<text text-anchor="start" x="282.0091" y="-42.4" font-family="sans-serif" font-weight="bold" font-size="14.00" fill="#000000">Legend</text>
<polygon fill="#ffffb3" stroke="transparent" points="69,-10 69,-30 89,-30 89,-10 69,-10"/>
<text text-anchor="start" x="92.629" y="-15.4" font-family="sans-serif" font-size="14.00" fill="#000000"> &#160;Declarations</text>
<polygon fill="#8dd3c7" stroke="transparent" points="182,-10 182,-30 202,-30 202,-10 182,-10"/>
<text text-anchor="start" x="205.7251" y="-15.4" font-family="sans-serif" font-size="14.00" fill="#000000"> &#160;Module</text>
<polygon fill="#80b1d3" stroke="transparent" points="268,-10 268,-30 288,-30 288,-10 268,-10"/>
<text text-anchor="start" x="291.7812" y="-15.4" font-family="sans-serif" font-size="14.00" fill="#000000"> &#160;Bootstrap</text>
<polygon fill="#fdb462" stroke="transparent" points="365,-10 365,-30 385,-30 385,-10 365,-10"/>
<text text-anchor="start" x="388.6732" y="-15.4" font-family="sans-serif" font-size="14.00" fill="#000000"> &#160;Providers</text>
<polygon fill="#fb8072" stroke="transparent" points="461,-10 461,-30 481,-30 481,-10 461,-10"/>
<text text-anchor="start" x="484.7258" y="-15.4" font-family="sans-serif" font-size="14.00" fill="#000000"> &#160;Exports</text>
<g id="clust1" class="cluster">
<title>cluster_AppModule</title>
<polygon fill="none" stroke="#000000" stroke-dasharray="1,5" points="8,-70 8,-268 598,-268 598,-70 8,-70"/>
</g>
<g id="clust2" class="cluster">
<title>cluster_AppModule_declarations</title>
<polygon fill="none" stroke="#000000" points="296,-78 296,-130 590,-130 590,-78 296,-78"/>
</g>
<g id="clust5" class="cluster">
<title>cluster_AppModule_imports</title>
<polygon fill="none" stroke="#000000" points="16,-78 16,-130 288,-130 288,-78 16,-78"/>
</g>
<g id="clust7" class="cluster">
<title>cluster_AppModule_bootstrap</title>
<polygon fill="none" stroke="#000000" points="236,-208 236,-260 360,-260 360,-208 236,-208"/>
</g>
<!-- AppComponent -->
<g id="node1" class="node">
<title>AppComponent</title>
<polygon fill="#ffffb3" stroke="#000000" points="581.9399,-122 476.0601,-122 476.0601,-86 581.9399,-86 581.9399,-122"/>
<text text-anchor="middle" x="529" y="-99.8" font-family="Times,serif" font-size="14.00" fill="#000000">AppComponent</text>
</g>
<!-- AppModule -->
<g id="node3" class="node">
<title>AppModule</title>
<polygon fill="#8dd3c7" stroke="#000000" points="339.6571,-187 336.6571,-191 315.6571,-191 312.6571,-187 256.3429,-187 256.3429,-151 339.6571,-151 339.6571,-187"/>
<text text-anchor="middle" x="298" y="-164.8" font-family="Times,serif" font-size="14.00" fill="#000000">AppModule</text>
</g>
<!-- AppComponent&#45;&gt;AppModule -->
<g id="edge1" class="edge">
<title>AppComponent&#45;&gt;AppModule</title>
<path fill="none" stroke="#000000" d="M529,-122.1061C529,-141.3391 529,-169 529,-169 529,-169 349.8324,-169 349.8324,-169"/>
<polygon fill="#000000" stroke="#000000" points="349.8324,-165.5001 339.8324,-169 349.8323,-172.5001 349.8324,-165.5001"/>
</g>
<!-- Component1Component -->
<g id="node2" class="node">
<title>Component1Component</title>
<polygon fill="#ffffb3" stroke="#000000" points="457.6652,-122 304.3348,-122 304.3348,-86 457.6652,-86 457.6652,-122"/>
<text text-anchor="middle" x="381" y="-99.8" font-family="Times,serif" font-size="14.00" fill="#000000">Component1Component</text>
</g>
<!-- Component1Component&#45;&gt;AppModule -->
<g id="edge2" class="edge">
<title>Component1Component&#45;&gt;AppModule</title>
<path fill="none" stroke="#000000" d="M321.9979,-122.1061C321.9979,-122.1061 321.9979,-140.991 321.9979,-140.991"/>
<polygon fill="#000000" stroke="#000000" points="318.498,-140.9909 321.9979,-150.991 325.498,-140.991 318.498,-140.9909"/>
</g>
<!-- AppComponent  -->
<g id="node6" class="node">
<title>AppComponent </title>
<polygon fill="#80b1d3" stroke="#000000" points="352.439,-252 243.561,-252 243.561,-216 352.439,-216 352.439,-252"/>
<text text-anchor="middle" x="298" y="-229.8" font-family="Times,serif" font-size="14.00" fill="#000000">AppComponent </text>
</g>
<!-- AppModule&#45;&gt;AppComponent  -->
<g id="edge5" class="edge">
<title>AppModule&#45;&gt;AppComponent </title>
<path fill="none" stroke="#000000" stroke-dasharray="1,5" d="M298,-187.1061C298,-187.1061 298,-205.991 298,-205.991"/>
<polygon fill="#000000" stroke="#000000" points="294.5001,-205.9909 298,-215.991 301.5001,-205.991 294.5001,-205.9909"/>
</g>
<!-- AppRoutingModule -->
<g id="node4" class="node">
<title>AppRoutingModule</title>
<polygon fill="#8dd3c7" stroke="#000000" points="280.2744,-122 277.2744,-126 256.2744,-126 253.2744,-122 151.7256,-122 151.7256,-86 280.2744,-86 280.2744,-122"/>
<text text-anchor="middle" x="216" y="-99.8" font-family="Times,serif" font-size="14.00" fill="#000000">AppRoutingModule</text>
</g>
<!-- AppRoutingModule&#45;&gt;AppModule -->
<g id="edge3" class="edge">
<title>AppRoutingModule&#45;&gt;AppModule</title>
<path fill="none" stroke="#000000" d="M268.2795,-122.1061C268.2795,-122.1061 268.2795,-140.991 268.2795,-140.991"/>
<polygon fill="#000000" stroke="#000000" points="264.7795,-140.9909 268.2795,-150.991 271.7795,-140.991 264.7795,-140.9909"/>
</g>
<!-- Module1Module -->
<g id="node5" class="node">
<title>Module1Module</title>
<polygon fill="#8dd3c7" stroke="#000000" points="134.0996,-122 131.0996,-126 110.0996,-126 107.0996,-122 23.9004,-122 23.9004,-86 134.0996,-86 134.0996,-122"/>
<text text-anchor="middle" x="79" y="-99.8" font-family="Times,serif" font-size="14.00" fill="#000000">Module1Module</text>
</g>
<!-- Module1Module&#45;&gt;AppModule -->
<g id="edge4" class="edge">
<title>Module1Module&#45;&gt;AppModule</title>
<path fill="none" stroke="#000000" d="M79,-122.1061C79,-141.3391 79,-169 79,-169 79,-169 246.2923,-169 246.2923,-169"/>
<polygon fill="#000000" stroke="#000000" points="246.2923,-172.5001 256.2923,-169 246.2923,-165.5001 246.2923,-172.5001"/>
</g>
</g>
</svg>
