<?xml version="1.0" encoding="UTF-8" standalone="no"?>
<!DOCTYPE svg PUBLIC "-//W3C//DTD SVG 1.1//EN"
 "http://www.w3.org/Graphics/SVG/1.1/DTD/svg11.dtd">
<!-- Generated by graphviz version 2.40.1 (20161225.0304)
 -->
<!-- Title: dependencies Pages: 1 -->
<svg width="504pt" height="284pt"
 viewBox="0.00 0.00 504.00 284.00" xmlns="http://www.w3.org/2000/svg" xmlns:xlink="http://www.w3.org/1999/xlink">
<g id="graph0" class="graph" transform="scale(1 1) rotate(0) translate(4 280)">
<title>dependencies</title>
<polygon fill="#ffffff" stroke="transparent" points="-4,4 -4,-280 500,-280 500,4 -4,4"/>
<text text-anchor="start" x="227.0091" y="-42.4" font-family="sans-serif" font-weight="bold" font-size="14.00" fill="#000000">Legend</text>
<polygon fill="#ffffb3" stroke="transparent" points="14,-10 14,-30 34,-30 34,-10 14,-10"/>
<text text-anchor="start" x="37.629" y="-15.4" font-family="sans-serif" font-size="14.00" fill="#000000"> &#160;Declarations</text>
<polygon fill="#8dd3c7" stroke="transparent" points="127,-10 127,-30 147,-30 147,-10 127,-10"/>
<text text-anchor="start" x="150.7251" y="-15.4" font-family="sans-serif" font-size="14.00" fill="#000000"> &#160;Module</text>
<polygon fill="#80b1d3" stroke="transparent" points="213,-10 213,-30 233,-30 233,-10 213,-10"/>
<text text-anchor="start" x="236.7812" y="-15.4" font-family="sans-serif" font-size="14.00" fill="#000000"> &#160;Bootstrap</text>
<polygon fill="#fdb462" stroke="transparent" points="310,-10 310,-30 330,-30 330,-10 310,-10"/>
<text text-anchor="start" x="333.6732" y="-15.4" font-family="sans-serif" font-size="14.00" fill="#000000"> &#160;Providers</text>
<polygon fill="#fb8072" stroke="transparent" points="406,-10 406,-30 426,-30 426,-10 406,-10"/>
<text text-anchor="start" x="429.7258" y="-15.4" font-family="sans-serif" font-size="14.00" fill="#000000"> &#160;Exports</text>
<g id="clust1" class="cluster">
<title>cluster_Module1Module</title>
<polygon fill="none" stroke="#000000" stroke-dasharray="1,5" points="58,-70 58,-268 438,-268 438,-70 58,-70"/>
</g>
<g id="clust2" class="cluster">
<title>cluster_Module1Module_declarations</title>
<polygon fill="none" stroke="#000000" points="66,-78 66,-130 430,-130 430,-78 66,-78"/>
</g>
<g id="clust6" class="cluster">
<title>cluster_Module1Module_exports</title>
<polygon fill="none" stroke="#000000" points="187,-208 187,-260 339,-260 339,-208 187,-208"/>
</g>
<!-- Module1Component -->
<g id="node1" class="node">
<title>Module1Component</title>
<polygon fill="#ffffb3" stroke="#000000" points="421.8823,-122 290.1177,-122 290.1177,-86 421.8823,-86 421.8823,-122"/>
<text text-anchor="middle" x="356" y="-99.8" font-family="Times,serif" font-size="14.00" fill="#000000">Module1Component</text>
</g>
<!-- Module1Module -->
<g id="node3" class="node">
<title>Module1Module</title>
<polygon fill="#8dd3c7" stroke="#000000" points="318.0996,-187 315.0996,-191 294.0996,-191 291.0996,-187 207.9004,-187 207.9004,-151 318.0996,-151 318.0996,-187"/>
<text text-anchor="middle" x="263" y="-164.8" font-family="Times,serif" font-size="14.00" fill="#000000">Module1Module</text>
</g>
<!-- Module1Component&#45;&gt;Module1Module -->
<g id="edge1" class="edge">
<title>Module1Component&#45;&gt;Module1Module</title>
<path fill="none" stroke="#000000" d="M304.0544,-122.1061C304.0544,-122.1061 304.0544,-140.991 304.0544,-140.991"/>
<polygon fill="#000000" stroke="#000000" points="300.5544,-140.9909 304.0544,-150.991 307.5544,-140.991 300.5544,-140.9909"/>
</g>
<!-- ModuleComponent1Component -->
<g id="node2" class="node">
<title>ModuleComponent1Component</title>
<polygon fill="#ffffb3" stroke="#000000" points="271.7147,-122 74.2853,-122 74.2853,-86 271.7147,-86 271.7147,-122"/>
<text text-anchor="middle" x="173" y="-99.8" font-family="Times,serif" font-size="14.00" fill="#000000">ModuleComponent1Component</text>
</g>
<!-- ModuleComponent1Component&#45;&gt;Module1Module -->
<g id="edge2" class="edge">
<title>ModuleComponent1Component&#45;&gt;Module1Module</title>
<path fill="none" stroke="#000000" d="M239.7788,-122.1061C239.7788,-122.1061 239.7788,-140.991 239.7788,-140.991"/>
<polygon fill="#000000" stroke="#000000" points="236.2788,-140.9909 239.7788,-150.991 243.2788,-140.991 236.2788,-140.9909"/>
</g>
<!-- Module1Component  -->
<g id="node4" class="node">
<title>Module1Component </title>
<polygon fill="#fb8072" stroke="#000000" points="330.8827,-252 195.1173,-252 195.1173,-216 330.8827,-216 330.8827,-252"/>
<text text-anchor="middle" x="263" y="-229.8" font-family="Times,serif" font-size="14.00" fill="#000000">Module1Component </text>
</g>
<!-- Module1Module&#45;&gt;Module1Component  -->
<g id="edge3" class="edge">
<title>Module1Module&#45;&gt;Module1Component </title>
<path fill="none" stroke="#000000" stroke-dasharray="5,2" d="M263,-187.1061C263,-187.1061 263,-205.991 263,-205.991"/>
<polygon fill="#000000" stroke="#000000" points="259.5001,-205.9909 263,-215.991 266.5001,-205.991 259.5001,-205.9909"/>
</g>
</g>
</svg>
